<?xml version="1.0" encoding="UTF-8" standalone="no"?>
<svg
   id="Layer_1"
   viewBox="0 0 150 40"
   version="1.1"
   sodipodi:docname="banqer-logo.svg"
   width="150"
   height="40"
   inkscape:version="1.2.2 (b0a84865, 2022-12-01)"
   xmlns:inkscape="http://www.inkscape.org/namespaces/inkscape"
   xmlns:sodipodi="http://sodipodi.sourceforge.net/DTD/sodipodi-0.dtd"
   xmlns="http://www.w3.org/2000/svg"
   xmlns:svg="http://www.w3.org/2000/svg">
  <sodipodi:namedview
     id="namedview39"
     pagecolor="#ffffff"
     bordercolor="#000000"
     borderopacity="0.25"
     inkscape:showpageshadow="2"
     inkscape:pageopacity="0.0"
     inkscape:pagecheckerboard="0"
     inkscape:deskcolor="#d1d1d1"
     showgrid="false"
     inkscape:zoom="2.89"
     inkscape:cx="46.885813"
     inkscape:cy="12.456747"
     inkscape:window-width="1309"
     inkscape:window-height="456"
     inkscape:window-x="0"
     inkscape:window-y="38"
     inkscape:window-maximized="0"
     inkscape:current-layer="Layer_1" />
  <defs
     id="defs25">
    <style
       id="style9">.cls-1{fill:none;}.cls-2{fill:url(#linear-gradient);}.cls-3{clip-path:url(#clippath);}.cls-4{fill:#8331a7;}.cls-5{clip-path:url(#clippath-1);}.cls-6{clip-path:url(#clippath-2);}</style>
    <clipPath
       id="clippath">
      <rect
         class="cls-1"
         y="4.4400001"
         width="110.51"
         height="20.07"
         id="rect11"
         x="0" />
    </clipPath>
    <clipPath
       id="clippath-1">
      <rect
         class="cls-1"
         y="4.4400001"
         width="110.51"
         height="20.07"
         id="rect14"
         x="0" />
    </clipPath>
    <clipPath
       id="clippath-2">
      <path
         class="cls-1"
         d="M 11.34,23.37 H 11.28 C 11.11,23.43 11,23.6 11,23.77 c 0.06,0.17 0.23,0.28 0.4,0.23 l 11.11,-1.53 c 0.17,0 0.28,-0.17 0.28,-0.34 0,-0.17 -0.17,-0.28 -0.34,-0.28 L 11.34,23.38 Z M 6.58,21.33 c -0.11,0 -0.23,0.17 -0.17,0.28 0,0.11 0.17,0.23 0.28,0.17 l 9.98,-1.36 c 0.11,0 0.23,-0.11 0.23,-0.28 -0.11,-0.06 -0.23,-0.17 -0.34,-0.17 z m 13.55,-3.46 c -0.28,0.45 -0.57,0.91 -0.79,1.36 0.51,-0.06 2.1,-0.28 2.78,-0.4 -0.28,-0.34 -0.51,-0.68 -0.74,-1.13 -0.51,0.06 -0.91,0.11 -1.25,0.17 M 18.15,16.79 0.34,19.23 H 0.28 C 0.11,19.29 0,19.46 0,19.63 c 0.06,0.17 0.23,0.28 0.4,0.23 l 17.8,-2.44 c 0.17,0 0.28,-0.17 0.28,-0.34 0,-0.15 -0.13,-0.3 -0.27,-0.3 -0.02,0 -0.04,0 -0.07,0.01 m 20.8,-1.59 c -0.17,0.4 -0.34,0.85 -0.57,1.3 0.91,-0.11 1.42,-0.17 2.04,-0.28 0.34,-0.51 0.79,-1.02 1.02,-1.36 -0.51,0.06 -1.59,0.23 -2.49,0.34 M 3.51,16.05 c -0.11,0 -0.23,0.17 -0.17,0.28 0,0.11 0.17,0.23 0.28,0.17 l 9.98,-1.36 c 0.11,0 0.23,-0.17 0.23,-0.28 C 13.72,14.8 13.6,14.69 13.49,14.69 Z M 18.7,11.8 c -0.4,0.79 0.11,1.59 0.79,2.04 0.4,0.06 0.74,-0.34 0.85,-0.45 -0.57,-0.4 -1.08,-0.68 -0.96,-1.19 0.11,-0.4 0.51,-0.62 0.85,-0.45 0.57,0.34 0.68,1.19 0.45,1.76 -0.17,0.4 -0.51,0.62 -0.85,0.62 -0.96,0.06 -1.87,-0.51 -2.21,-1.81 -0.06,-0.23 -0.28,-0.34 -0.45,-0.28 -0.23,0.06 -0.34,0.28 -0.28,0.51 0.4,1.64 1.76,2.49 3,2.44 1.36,-0.06 1.87,-1.3 1.76,-2.49 -0.06,-0.79 -0.57,-1.36 -1.19,-1.53 -0.17,-0.11 -0.28,-0.11 -0.34,-0.11 -0.62,0 -1.13,0.45 -1.42,0.96 M 37.46,9.21 c 0.79,-0.17 1.59,-0.28 2.38,-0.34 0.06,0.4 -0.4,0.91 -0.74,0.96 -0.04,0 -0.08,0 -0.12,0 -0.54,0 -1.47,-0.31 -1.52,-0.63 M 36.72,4.44 c -0.34,1.3 -0.57,1.93 -0.96,2.78 -0.23,0 -0.34,0 -0.28,-0.17 0.11,-0.34 0.17,-0.62 0.17,-0.85 -2.38,0.91 -3.17,2.61 -3,4.71 -3,-2.89 -8.33,-2.38 -10.88,-5.22 -1.73,1.93 -2.67,1.83 -3.78,1.73 -1.14,-0.1 -2.48,-0.2 -5.06,1.9 6.35,-0.57 10.32,0.34 13.66,1.59 1.81,0.62 4.82,1.7 6.01,2.15 1.08,0.4 1.53,0.51 1.76,0.11 -0.45,1.3 -0.96,1.08 -2.04,0.68 -0.96,-0.34 -4.54,-1.64 -6.12,-2.21 -0.57,-0.17 -1.36,-0.45 -2.44,-0.45 -2.83,2.1 -2.89,5.44 -0.68,7.99 -0.68,0.17 -1.02,0.23 -1.87,0.34 -0.45,0.68 -0.68,1.08 -1.19,1.93 L 39.8,18.5 c 0.91,-0.96 1.25,-1.36 1.87,-1.98 -1.25,0.17 -2.32,0.34 -4.25,0.62 0.45,-0.62 0.79,-1.36 1.02,-2.15 1.25,-0.28 3,-0.96 3.4,-2.44 -0.91,0.11 -1.87,0.51 -3.17,-0.45 0.96,-0.17 2.55,-0.34 3.34,-0.45 0.34,-0.11 0.85,-1.7 0.96,-2.89 0.11,-0.51 -0.62,-0.57 -0.62,0 -0.17,0 -0.4,0.06 -0.62,0.06 C 41.39,7.52 40.82,7.35 40.2,6.89 39.92,5.7 40.43,4.74 40.43,4.74 39.52,4.57 38.9,5.08 38.39,5.7 38.79,5.93 39.13,6.21 39.35,6.55 38.95,6.38 38.61,6.27 38.22,6.15 37.88,5.36 37.26,4.51 36.75,4.45 Z"
         id="path17" />
    </clipPath>
    <linearGradient
       id="linear-gradient"
       x1="-436.70999"
       y1="-277.26999"
       x2="-436.03"
       y2="-277.26999"
       gradientTransform="matrix(31.04,0,0,-31.04,13578.57,-8591.52)"
       gradientUnits="userSpaceOnUse">
      <stop
         offset="0"
         stop-color="#c53292"
         id="stop20" />
      <stop
         offset="1"
         stop-color="#283f94"
         id="stop22" />
    </linearGradient>
  </defs>
  <g
     id="Banqer-logo-horizontal-colour"
     transform="translate(19.744999,5.5250001)">
    <g
       class="cls-3"
       clip-path="url(#clippath)"
       id="g35">
      <g
         class="cls-5"
         clip-path="url(#clippath-1)"
         id="g29">
        <path
           class="cls-4"
           d="m 59.12,20.11 3.2,-0.44 0.65,2.43 1.99,-0.27 -2.81,-9.74 -1.72,0.24 -4.3,10.71 1.99,-0.27 z m 2.98,-1.79 -2.56,0.35 1.59,-4.19 z M 57,22.59 c 0,0 -0.08,0 -0.11,-0.02 -0.15,-0.06 -0.23,-0.24 -0.16,-0.39 l 3.44,-8.29 c 0.07,-0.15 0.23,-0.22 0.39,-0.16 0.15,0.06 0.22,0.24 0.16,0.39 l -3.44,8.29 C 57.23,22.53 57.12,22.6 57,22.6 m 52.46,-11.28 c 0.25,-0.28 0.46,-0.59 0.63,-0.93 0.17,-0.34 0.29,-0.69 0.36,-1.05 0.07,-0.37 0.09,-0.73 0.03,-1.1 -0.05,-0.34 -0.15,-0.67 -0.3,-0.99 -0.15,-0.31 -0.35,-0.59 -0.59,-0.81 -0.24,-0.23 -0.52,-0.4 -0.84,-0.51 -0.32,-0.11 -0.67,-0.14 -1.04,-0.09 l -4.2,0.58 -0.75,10.22 1.92,-0.26 0.24,-3.42 1.72,-0.24 1.64,3.17 2.18,-0.3 -1.86,-3.55 c 0.32,-0.19 0.6,-0.42 0.85,-0.7 m -5.62,4.44 c -0.01,0.16 -0.14,0.28 -0.3,0.28 0,0 -0.01,0 -0.02,0 -0.16,0 -0.29,-0.15 -0.28,-0.31 l 0.46,-7.69 c 0.01,-0.16 0.13,-0.29 0.32,-0.28 0.16,0.01 0.29,0.15 0.28,0.32 l -0.46,7.69 z m 4.25,-9.22 c 0,0 1.24,0.38 1.59,1.6 0.05,0.16 -0.05,0.32 -0.2,0.37 -0.03,0 -0.06,0.01 -0.08,0.01 -0.13,0 -0.25,-0.09 -0.29,-0.22 -0.26,-0.91 -1.17,-1.19 -1.18,-1.19 -0.16,-0.05 -0.25,-0.21 -0.2,-0.37 0.05,-0.16 0.21,-0.25 0.37,-0.2 m 0.4,2.95 c -0.06,0.25 -0.14,0.47 -0.26,0.68 -0.12,0.2 -0.25,0.37 -0.42,0.5 -0.17,0.13 -0.35,0.21 -0.53,0.23 l -2.22,0.31 0.24,-3.32 2.16,-0.3 c 0.25,-0.03 0.48,0.06 0.69,0.27 0.2,0.21 0.33,0.5 0.38,0.85 0.04,0.26 0.02,0.52 -0.03,0.77 M 89.44,12.47 C 89.37,11.94 89.22,11.43 88.99,10.95 88.76,10.47 88.47,10.06 88.11,9.72 87.75,9.38 87.33,9.12 86.84,8.95 86.36,8.78 85.82,8.73 85.23,8.81 84.47,8.92 83.75,9.19 83.1,9.62 c -0.66,0.43 -1.22,0.97 -1.68,1.6 -0.47,0.63 -0.81,1.32 -1.03,2.08 -0.22,0.76 -0.28,1.51 -0.18,2.27 0.08,0.54 0.23,1.05 0.46,1.52 0.23,0.47 0.53,0.88 0.89,1.22 0.36,0.34 0.79,0.59 1.27,0.76 0.49,0.17 1.03,0.21 1.61,0.13 0.45,-0.06 0.87,-0.18 1.28,-0.35 0.41,-0.17 0.79,-0.39 1.15,-0.65 l 0.89,1 1.18,-0.94 -0.95,-1.13 c 0.55,-0.64 0.96,-1.38 1.22,-2.19 0.27,-0.82 0.34,-1.63 0.23,-2.46 m -5.79,6.18 c 0,0 -0.05,0 -0.07,0 -1.23,-0.31 -2.54,-1.33 -2.72,-2.93 -0.48,-2.72 1.24,-4.48 1.32,-4.55 0.12,-0.11 0.31,-0.11 0.42,0 0.12,0.12 0.12,0.31 0,0.42 -0.02,0.02 -1.58,1.62 -1.15,4.04 0.15,1.33 1.25,2.18 2.27,2.43 0.16,0.04 0.26,0.2 0.22,0.36 -0.03,0.14 -0.16,0.23 -0.29,0.23 m 1.58,-1.39 c -0.2,0.07 -0.42,0.13 -0.64,0.16 -0.35,0.05 -0.67,0.02 -0.95,-0.08 -0.28,-0.11 -0.52,-0.26 -0.73,-0.48 -0.21,-0.21 -0.38,-0.47 -0.5,-0.77 -0.13,-0.3 -0.21,-0.62 -0.26,-0.96 -0.07,-0.48 -0.05,-0.97 0.05,-1.48 0.1,-0.51 0.28,-0.98 0.53,-1.42 0.25,-0.43 0.58,-0.8 0.97,-1.11 0.4,-0.31 0.85,-0.49 1.36,-0.56 0.35,-0.05 0.66,-0.02 0.93,0.08 0.28,0.11 0.52,0.26 0.72,0.48 0.21,0.22 0.37,0.47 0.51,0.77 0.13,0.3 0.22,0.62 0.27,0.97 0.07,0.49 0.05,0.99 -0.07,1.51 -0.11,0.51 -0.3,1 -0.57,1.45 l -0.61,-0.71 -1.18,0.91 0.74,0.93 c -0.18,0.12 -0.38,0.22 -0.58,0.3 m 2.53,0.97 c -0.06,0.05 -0.13,0.08 -0.2,0.08 -0.08,0 -0.16,-0.03 -0.22,-0.1 l -1.41,-1.6 c -0.11,-0.12 -0.1,-0.31 0.03,-0.42 0.12,-0.11 0.31,-0.1 0.42,0.03 l 1.41,1.6 c 0.11,0.12 0.1,0.31 -0.03,0.42 m 0.12,-6.69 c 0,0 -0.07,0.02 -0.1,0.02 -0.12,0 -0.24,-0.08 -0.28,-0.2 -0.32,-0.9 -1.5,-1.24 -1.51,-1.24 -0.16,-0.04 -0.25,-0.21 -0.21,-0.37 0.05,-0.16 0.21,-0.25 0.37,-0.21 0.06,0.02 1.49,0.42 1.92,1.62 0.05,0.16 -0.03,0.33 -0.18,0.38 m -13.27,8.99 1.55,-0.21 0.75,-10.21 -1.91,0.26 -0.49,6.69 -4.29,-6.05 -1.5,0.21 -0.75,10.22 1.92,-0.26 0.47,-6.55 z m 1.1,-9.37 c 0.01,-0.16 0.15,-0.31 0.32,-0.28 0.16,0.01 0.29,0.16 0.28,0.32 l -0.61,8.23 c -0.01,0.16 -0.14,0.28 -0.3,0.28 0,0 -0.01,0 -0.02,0 -0.16,-0.01 -0.29,-0.16 -0.28,-0.32 z m -6.14,1.84 -0.55,7.52 c -0.01,0.16 -0.14,0.28 -0.3,0.28 0,0 -0.02,0 -0.02,0 -0.16,-0.01 -0.29,-0.15 -0.28,-0.32 l 0.61,-8.33 c 0.01,-0.12 0.1,-0.23 0.22,-0.26 0.13,-0.04 0.25,0.01 0.32,0.11 l 1.93,2.63 c 0.1,0.13 0.07,0.32 -0.06,0.42 -0.13,0.1 -0.32,0.07 -0.42,-0.06 l -1.45,-1.98 z m -16.54,4.13 c 0.13,-0.27 0.22,-0.56 0.28,-0.85 0.05,-0.29 0.06,-0.58 0.02,-0.87 -0.04,-0.26 -0.11,-0.51 -0.21,-0.74 -0.1,-0.23 -0.24,-0.44 -0.4,-0.6 -0.16,-0.17 -0.36,-0.3 -0.59,-0.38 -0.23,-0.09 -0.48,-0.11 -0.76,-0.07 l -5.09,0.7 -0.75,10.22 4.56,-0.63 c 0.48,-0.07 0.93,-0.2 1.36,-0.39 0.43,-0.2 0.8,-0.45 1.11,-0.76 0.31,-0.31 0.54,-0.68 0.69,-1.09 0.15,-0.42 0.19,-0.88 0.12,-1.38 -0.07,-0.49 -0.24,-0.9 -0.51,-1.21 -0.27,-0.31 -0.63,-0.51 -1.06,-0.59 0.27,-0.16 0.51,-0.36 0.72,-0.59 0.21,-0.23 0.38,-0.49 0.52,-0.76 m -4.97,-1.38 2.44,-0.34 c 0.23,-0.03 0.43,0.02 0.59,0.18 0.16,0.15 0.27,0.37 0.31,0.66 0.03,0.23 0.02,0.45 -0.03,0.65 -0.05,0.2 -0.14,0.38 -0.25,0.53 -0.11,0.15 -0.25,0.28 -0.4,0.38 -0.15,0.1 -0.31,0.16 -0.48,0.18 l -2.37,0.33 z m 2.23,7.71 -4,0.53 c 0,0 -0.03,0 -0.04,0 -0.07,0 -0.15,-0.03 -0.2,-0.08 -0.07,-0.06 -0.1,-0.15 -0.09,-0.24 l 0.56,-8.09 c 0.01,-0.16 0.14,-0.28 0.3,-0.28 0,0 0.01,0 0.02,0 0.17,0.01 0.29,0.15 0.28,0.32 l -0.54,7.73 3.64,-0.48 c 0.16,0 0.31,0.09 0.33,0.26 0.02,0.16 -0.09,0.31 -0.26,0.34 m 1.11,-2.39 c -0.06,0.21 -0.14,0.39 -0.26,0.55 -0.11,0.16 -0.26,0.3 -0.42,0.41 -0.17,0.11 -0.34,0.17 -0.52,0.2 l -2.64,0.36 0.19,-2.69 2.74,-0.38 c 0.25,-0.04 0.46,0.03 0.64,0.22 0.17,0.18 0.28,0.41 0.32,0.7 0.03,0.22 0.02,0.43 -0.04,0.63 m 0.87,-4.88 c -0.14,0 -0.27,-0.11 -0.29,-0.25 -0.15,-0.92 -1.11,-1.02 -1.15,-1.02 -0.16,-0.01 -0.29,-0.16 -0.27,-0.32 0.01,-0.16 0.17,-0.26 0.32,-0.27 0.51,0.04 1.51,0.41 1.69,1.52 0.02,0.16 -0.08,0.31 -0.25,0.34 -0.02,0 -0.03,0 -0.05,0 m 47.37,-7.51 0.12,-1.74 -6.44,0.88 -0.75,10.22 6.56,-0.9 0.13,-1.74 -4.65,0.64 0.19,-2.66 3.9,-0.54 0.12,-1.61 -3.91,0.54 0.18,-2.46 4.53,-0.62 z m -2.44,7.58 c 0.16,0 0.31,0.09 0.33,0.26 0.02,0.16 -0.09,0.32 -0.26,0.34 l -3.85,0.52 c 0,0 -0.03,0 -0.04,0 -0.07,0 -0.15,-0.03 -0.2,-0.08 -0.07,-0.06 -0.1,-0.15 -0.09,-0.24 L 93.69,9.1 c 0,-0.16 0.14,-0.3 0.32,-0.28 0.16,0.01 0.29,0.16 0.28,0.32 l -0.56,7.62 3.48,-0.47 z"
           id="path27" />
      </g>
      <g
         class="cls-6"
         clip-path="url(#clippath-2)"
         id="g33">
        <rect
           class="cls-2"
           x="-1.15"
           y="1.54"
           width="45.389999"
           height="25.41"
           transform="rotate(-7.99,21.523645,14.236981)"
           id="rect31"
           style="fill:url(#linear-gradient)" />
      </g>
    </g>
  </g>
</svg>
